<svg width="407" height="447" viewBox="0 0 407 447" fill="none" xmlns="http://www.w3.org/2000/svg">
<rect width="407" height="447" fill="white"/>
<path d="M225.997 316.643H162.919C158.433 316.643 154.797 320.279 154.797 324.765V328.223C154.797 332.709 158.433 336.345 162.919 336.345H225.997C230.482 336.345 234.119 332.709 234.119 328.223V324.765C234.119 320.279 230.482 316.643 225.997 316.643Z" fill="#00D0A6"/>
<path d="M234.125 359.421C233.877 359.421 233.639 359.322 233.464 359.147C233.289 358.972 233.19 358.734 233.19 358.486V346.523C233.188 345.745 232.878 345 232.328 344.45C231.778 343.9 231.033 343.59 230.256 343.588H158.663C157.886 343.59 157.141 343.9 156.591 344.45C156.041 345 155.731 345.745 155.729 346.523V358.486C155.729 358.734 155.63 358.972 155.455 359.147C155.28 359.322 155.042 359.421 154.794 359.421C154.546 359.421 154.308 359.322 154.133 359.147C153.958 358.972 153.859 358.734 153.859 358.486V346.523C153.862 345.249 154.369 344.029 155.269 343.129C156.17 342.228 157.39 341.721 158.663 341.719H230.256C231.529 341.721 232.749 342.228 233.65 343.129C234.55 344.029 235.057 345.249 235.06 346.523V358.486C235.06 358.734 234.961 358.972 234.786 359.147C234.611 359.322 234.373 359.421 234.125 359.421Z" fill="#121212"/>
<path d="M204.802 322.447C203.665 321.488 202.213 320.985 200.727 321.036H197.325C197.044 321.061 196.782 321.191 196.592 321.399C196.402 321.608 196.296 321.88 196.296 322.162C196.296 322.444 196.402 322.716 196.592 322.924C196.782 323.133 197.044 323.263 197.325 323.288H200.699C203.914 323.288 204.26 325.643 204.26 326.662C204.26 327.681 203.914 330.036 200.699 330.036H198.455V325.531C198.43 325.25 198.3 324.989 198.092 324.799C197.883 324.609 197.611 324.503 197.329 324.503C197.047 324.503 196.775 324.609 196.567 324.799C196.358 324.989 196.229 325.25 196.203 325.531V331.139C196.203 331.436 196.321 331.722 196.532 331.932C196.742 332.142 197.027 332.261 197.325 332.261H200.699C202.183 332.31 203.634 331.811 204.774 330.859C205.881 329.739 206.502 328.228 206.502 326.653C206.502 325.078 205.881 323.567 204.774 322.447H204.802Z" fill="white"/>
<path d="M188.915 320.923C188.634 320.949 188.373 321.079 188.183 321.287C187.993 321.495 187.887 321.767 187.887 322.05C187.887 322.332 187.993 322.604 188.183 322.812C188.373 323.02 188.634 323.15 188.915 323.176C189.719 323.178 190.498 323.458 191.118 323.97C191.739 324.481 192.163 325.192 192.318 325.98C192.473 326.769 192.351 327.588 191.971 328.296C191.591 329.005 190.977 329.559 190.234 329.866C189.49 330.173 188.664 330.213 187.895 329.979C187.126 329.745 186.461 329.252 186.015 328.583C185.569 327.914 185.368 327.111 185.447 326.311C185.526 325.511 185.879 324.763 186.448 324.195C186.552 324.09 186.635 323.966 186.691 323.83C186.748 323.694 186.777 323.548 186.777 323.4C186.777 323.253 186.748 323.106 186.691 322.97C186.635 322.834 186.552 322.71 186.448 322.606C186.344 322.501 186.22 322.419 186.083 322.362C185.947 322.306 185.801 322.277 185.653 322.277C185.506 322.277 185.36 322.306 185.223 322.362C185.087 322.419 184.963 322.501 184.859 322.606C183.921 323.545 183.337 324.78 183.207 326.102C183.077 327.423 183.41 328.748 184.148 329.852C184.886 330.956 185.984 331.769 187.255 332.154C188.526 332.539 189.89 332.471 191.117 331.963C192.343 331.454 193.355 330.536 193.981 329.365C194.606 328.193 194.806 326.842 194.546 325.54C194.286 324.238 193.583 323.066 192.557 322.224C191.53 321.382 190.243 320.923 188.915 320.923V320.923Z" fill="white"/>
<path d="M213.486 320.923C213.205 320.949 212.944 321.079 212.754 321.287C212.564 321.495 212.458 321.767 212.458 322.05C212.458 322.332 212.564 322.604 212.754 322.812C212.944 323.02 213.205 323.15 213.486 323.176C214.296 323.174 215.081 323.453 215.707 323.965C216.334 324.477 216.763 325.191 216.922 325.985C217.081 326.778 216.96 327.603 216.579 328.317C216.198 329.031 215.581 329.591 214.833 329.9C214.086 330.21 213.253 330.251 212.479 330.016C211.705 329.781 211.036 329.284 210.587 328.611C210.138 327.937 209.936 327.129 210.017 326.323C210.097 325.518 210.455 324.766 211.028 324.195C211.239 323.984 211.357 323.698 211.357 323.4C211.357 323.102 211.239 322.816 211.028 322.606C210.818 322.395 210.532 322.277 210.234 322.277C209.936 322.277 209.65 322.395 209.439 322.606C208.503 323.544 207.921 324.778 207.793 326.097C207.664 327.417 207.997 328.74 208.735 329.841C209.473 330.942 210.569 331.754 211.838 332.137C213.107 332.52 214.47 332.452 215.694 331.943C216.918 331.434 217.928 330.517 218.551 329.347C219.175 328.177 219.373 326.827 219.113 325.527C218.852 324.227 218.149 323.058 217.123 322.219C216.097 321.379 214.812 320.921 213.486 320.923V320.923Z" fill="white"/>
<path d="M170.689 326.663C170.469 326.662 170.252 326.726 170.068 326.848C169.883 326.969 169.739 327.142 169.652 327.345C169.593 327.485 169.562 327.634 169.559 327.785V331.233C169.584 331.514 169.714 331.776 169.922 331.966C170.131 332.156 170.403 332.262 170.685 332.262C170.967 332.262 171.239 332.156 171.447 331.966C171.656 331.776 171.785 331.514 171.811 331.233V327.785C171.811 327.637 171.782 327.492 171.726 327.355C171.669 327.219 171.587 327.096 171.482 326.992C171.378 326.887 171.255 326.805 171.119 326.748C170.983 326.692 170.837 326.663 170.689 326.663V326.663Z" fill="white"/>
<path d="M180.662 321.092C180.435 321.02 180.191 321.021 179.965 321.095C179.739 321.169 179.541 321.312 179.4 321.503L175.484 326.98L171.559 321.503C171.472 321.38 171.362 321.276 171.235 321.196C171.108 321.115 170.967 321.061 170.819 321.035C170.671 321.01 170.519 321.013 170.373 321.046C170.226 321.079 170.088 321.141 169.965 321.227C169.842 321.314 169.738 321.424 169.658 321.551C169.577 321.678 169.523 321.819 169.497 321.967C169.472 322.115 169.475 322.267 169.508 322.413C169.541 322.56 169.603 322.698 169.689 322.821L174.521 329.56C174.626 329.71 174.766 329.832 174.929 329.915C175.092 329.998 175.273 330.04 175.456 330.036C175.639 330.039 175.82 329.997 175.983 329.914C176.145 329.831 176.286 329.709 176.391 329.56V329.56L179.195 325.662V331.27C179.22 331.551 179.35 331.812 179.558 332.003C179.767 332.193 180.039 332.298 180.321 332.298C180.603 332.298 180.875 332.193 181.083 332.003C181.292 331.812 181.421 331.551 181.447 331.27V322.204C181.456 321.958 181.384 321.716 181.243 321.515C181.101 321.314 180.897 321.166 180.662 321.092V321.092Z" fill="white"/>
<path d="M188.392 363.29H160.466C160.218 363.29 159.98 363.192 159.805 363.016C159.63 362.841 159.531 362.603 159.531 362.356C159.531 362.108 159.63 361.87 159.805 361.695C159.98 361.519 160.218 361.421 160.466 361.421H188.392C188.64 361.421 188.878 361.519 189.053 361.695C189.229 361.87 189.327 362.108 189.327 362.356C189.327 362.603 189.229 362.841 189.053 363.016C188.878 363.192 188.64 363.29 188.392 363.29Z" fill="#121212"/>
<path d="M194.747 363.29H192.56C192.312 363.29 192.074 363.192 191.899 363.016C191.723 362.841 191.625 362.603 191.625 362.356C191.625 362.108 191.723 361.87 191.899 361.695C192.074 361.519 192.312 361.421 192.56 361.421H194.747C194.994 361.421 195.232 361.519 195.408 361.695C195.583 361.87 195.681 362.108 195.681 362.356C195.681 362.603 195.583 362.841 195.408 363.016C195.232 363.192 194.994 363.29 194.747 363.29Z" fill="#121212"/>
<path d="M226.632 376.674H162.143C157.929 376.674 153.887 375 150.908 372.02C147.928 369.041 146.254 364.999 146.254 360.785V227.293C146.254 223.079 147.928 219.038 150.908 216.058C153.887 213.078 157.929 211.404 162.143 211.404H226.632C230.846 211.404 234.887 213.078 237.867 216.058C240.846 219.038 242.52 223.079 242.52 227.293V360.776C242.522 362.863 242.112 364.931 241.314 366.859C240.516 368.788 239.346 370.541 237.87 372.017C236.394 373.494 234.642 374.665 232.714 375.464C230.786 376.263 228.719 376.674 226.632 376.674V376.674ZM162.143 213.274C158.424 213.274 154.859 214.751 152.229 217.38C149.6 220.009 148.123 223.575 148.123 227.293V360.776C148.123 364.494 149.6 368.06 152.229 370.689C154.859 373.318 158.424 374.796 162.143 374.796H226.632C230.35 374.796 233.916 373.318 236.545 370.689C239.174 368.06 240.651 364.494 240.651 360.776V227.293C240.651 223.575 239.174 220.009 236.545 217.38C233.916 214.751 230.35 213.274 226.632 213.274H162.143Z" fill="#121212"/>
<path d="M257.754 304.619C257.549 304.619 257.352 304.537 257.206 304.393C257.061 304.248 256.98 304.052 256.98 303.847C256.979 302.307 256.364 300.83 255.271 299.74C254.178 298.65 252.695 298.037 251.149 298.035C250.944 298.035 250.747 297.953 250.602 297.809C250.457 297.664 250.375 297.468 250.375 297.263C250.375 297.059 250.457 296.863 250.602 296.718C250.747 296.574 250.944 296.492 251.149 296.492C252.695 296.491 254.177 295.879 255.271 294.79C256.364 293.701 256.979 292.224 256.98 290.684C256.98 290.583 257 290.483 257.039 290.389C257.078 290.296 257.135 290.211 257.206 290.139C257.278 290.067 257.364 290.011 257.458 289.972C257.551 289.933 257.652 289.913 257.754 289.913C257.855 289.913 257.956 289.933 258.05 289.972C258.144 290.011 258.229 290.067 258.301 290.139C258.373 290.211 258.43 290.296 258.469 290.389C258.508 290.483 258.528 290.583 258.528 290.684C258.53 292.225 259.146 293.701 260.24 294.79C261.334 295.879 262.817 296.491 264.363 296.492C264.568 296.492 264.765 296.574 264.911 296.718C265.056 296.863 265.137 297.059 265.137 297.263C265.137 297.468 265.056 297.664 264.911 297.809C264.765 297.953 264.568 298.035 264.363 298.035C262.819 298.037 261.338 298.648 260.245 299.735C259.151 300.822 258.534 302.295 258.528 303.834C258.53 303.936 258.511 304.038 258.473 304.133C258.435 304.228 258.378 304.315 258.306 304.388C258.234 304.461 258.148 304.519 258.053 304.559C257.958 304.598 257.857 304.619 257.754 304.619V304.619ZM254.44 297.263C255.874 297.978 257.036 299.136 257.754 300.565C258.474 299.139 259.636 297.981 261.068 297.263C259.635 296.547 258.473 295.389 257.754 293.962C257.036 295.391 255.874 296.549 254.44 297.263V297.263Z" fill="#00D0A6"/>
<path d="M124.046 259.706C123.841 259.706 123.644 259.624 123.499 259.48C123.354 259.335 123.272 259.139 123.272 258.935C123.272 257.394 122.658 255.916 121.565 254.826C120.471 253.736 118.988 253.123 117.441 253.122C117.246 253.107 117.063 253.019 116.93 252.875C116.797 252.732 116.723 252.544 116.723 252.348C116.723 252.153 116.797 251.965 116.93 251.821C117.063 251.678 117.246 251.59 117.441 251.575C118.987 251.574 120.47 250.961 121.563 249.872C122.656 248.783 123.271 247.307 123.272 245.767C123.287 245.572 123.375 245.39 123.519 245.257C123.663 245.125 123.852 245.051 124.048 245.051C124.244 245.051 124.433 245.125 124.577 245.257C124.721 245.39 124.81 245.572 124.825 245.767C124.826 247.307 125.441 248.783 126.534 249.872C127.627 250.961 129.109 251.574 130.655 251.575C130.851 251.59 131.034 251.678 131.167 251.821C131.3 251.965 131.374 252.153 131.374 252.348C131.374 252.544 131.3 252.732 131.167 252.875C131.034 253.019 130.851 253.107 130.655 253.122C129.11 253.124 127.629 253.737 126.537 254.826C125.445 255.915 124.831 257.391 124.829 258.93C124.829 259.032 124.809 259.133 124.77 259.228C124.73 259.322 124.672 259.408 124.6 259.48C124.527 259.552 124.44 259.609 124.345 259.648C124.25 259.687 124.149 259.706 124.046 259.706ZM120.732 252.351C122.166 253.065 123.329 254.224 124.046 255.652C124.765 254.225 125.927 253.067 127.36 252.351C125.929 251.632 124.768 250.475 124.046 249.049C123.327 250.477 122.165 251.634 120.732 252.351V252.351Z" fill="#00D0A6"/>
<path d="M142.741 174.655C142.536 174.655 142.339 174.574 142.194 174.429C142.049 174.284 141.967 174.088 141.967 173.884C141.966 172.344 141.351 170.867 140.258 169.778C139.165 168.689 137.683 168.077 136.137 168.076C135.941 168.06 135.758 167.972 135.625 167.829C135.492 167.686 135.418 167.498 135.418 167.302C135.418 167.107 135.492 166.919 135.625 166.775C135.758 166.632 135.941 166.544 136.137 166.529C136.903 166.529 137.663 166.379 138.371 166.088C139.08 165.796 139.723 165.368 140.266 164.828C140.808 164.288 141.238 163.647 141.532 162.941C141.826 162.236 141.977 161.48 141.977 160.716C141.992 160.521 142.08 160.339 142.224 160.206C142.368 160.074 142.557 160 142.753 160C142.949 160 143.138 160.074 143.282 160.206C143.426 160.339 143.514 160.521 143.529 160.716C143.531 162.256 144.145 163.733 145.238 164.822C146.332 165.911 147.814 166.523 149.36 166.524C149.556 166.539 149.738 166.627 149.871 166.771C150.005 166.914 150.079 167.102 150.079 167.298C150.079 167.493 150.005 167.681 149.871 167.824C149.738 167.968 149.556 168.056 149.36 168.071C147.814 168.072 146.332 168.684 145.238 169.773C144.145 170.862 143.531 172.339 143.529 173.879C143.529 173.982 143.509 174.083 143.469 174.178C143.429 174.273 143.371 174.359 143.298 174.431C143.225 174.503 143.138 174.56 143.042 174.598C142.947 174.637 142.844 174.656 142.741 174.655V174.655ZM139.427 167.304C140.861 168.018 142.023 169.174 142.741 170.601C143.46 169.172 144.624 168.014 146.06 167.3C144.627 166.583 143.463 165.425 142.741 163.999C142.025 165.424 140.866 166.582 139.437 167.3L139.427 167.304Z" fill="#0097F7"/>
<path d="M175.452 199.561C175.247 199.561 175.05 199.48 174.905 199.335C174.76 199.191 174.678 198.995 174.678 198.79C174.678 195.637 172.069 190.807 168.848 190.807C168.652 190.792 168.469 190.704 168.336 190.561C168.203 190.417 168.129 190.229 168.129 190.034C168.129 189.838 168.203 189.65 168.336 189.507C168.469 189.363 168.652 189.275 168.848 189.26C172.092 189.26 174.678 184.431 174.678 181.277C174.693 181.083 174.782 180.901 174.926 180.768C175.07 180.635 175.258 180.562 175.455 180.562C175.651 180.562 175.84 180.635 175.984 180.768C176.127 180.901 176.216 181.083 176.231 181.277C176.231 184.431 178.84 189.26 182.062 189.26C182.257 189.275 182.44 189.363 182.573 189.507C182.706 189.65 182.78 189.838 182.78 190.034C182.78 190.229 182.706 190.417 182.573 190.561C182.44 190.704 182.257 190.792 182.062 190.807C178.84 190.807 176.231 195.637 176.231 198.79C176.23 198.995 176.147 199.191 176.001 199.336C175.855 199.48 175.658 199.561 175.452 199.561ZM171.527 190.031C173.274 191.07 174.65 193.023 175.452 195.064C176.254 193.023 177.635 191.07 179.383 190.031C177.635 188.997 176.254 187.044 175.452 185.003C174.65 187.053 173.292 188.997 171.527 190.031Z" fill="#0669FD"/>
<path d="M222.271 194.041C222.065 194.041 221.868 193.96 221.723 193.816C221.578 193.671 221.497 193.475 221.497 193.27C221.497 190.098 218.869 185.241 215.633 185.241C215.428 185.241 215.231 185.16 215.086 185.015C214.941 184.871 214.859 184.675 214.859 184.47C214.859 184.266 214.941 184.07 215.086 183.925C215.231 183.78 215.428 183.699 215.633 183.699C218.878 183.699 221.497 178.842 221.497 175.67C221.512 175.475 221.6 175.293 221.744 175.161C221.888 175.028 222.077 174.954 222.273 174.954C222.469 174.954 222.658 175.028 222.802 175.161C222.946 175.293 223.034 175.475 223.049 175.67C223.049 178.842 225.677 183.699 228.912 183.699C229.118 183.699 229.315 183.78 229.46 183.925C229.605 184.07 229.687 184.266 229.687 184.47C229.687 184.675 229.605 184.871 229.46 185.015C229.315 185.16 229.118 185.241 228.912 185.241C225.668 185.241 223.049 190.098 223.049 193.27C223.048 193.475 222.965 193.671 222.82 193.816C222.674 193.96 222.476 194.041 222.271 194.041V194.041ZM218.317 184.47C220.078 185.514 221.469 187.48 222.271 189.549C223.077 187.494 224.468 185.527 226.229 184.47C224.468 183.427 223.077 181.46 222.271 179.391C221.469 181.46 220.078 183.427 218.317 184.47Z" fill="#263144"/>
<path d="M197.655 222.564H184.243C183.995 222.564 183.758 222.465 183.582 222.29C183.407 222.115 183.309 221.877 183.309 221.629C183.309 221.381 183.407 221.143 183.582 220.968C183.758 220.793 183.995 220.694 184.243 220.694H197.627C197.875 220.694 198.113 220.793 198.288 220.968C198.463 221.143 198.562 221.381 198.562 221.629C198.562 221.877 198.463 222.115 198.288 222.29C198.113 222.465 197.875 222.564 197.627 222.564H197.655Z" fill="#121212"/>
<path d="M203.423 222.564H201.47C201.222 222.564 200.984 222.465 200.809 222.29C200.634 222.115 200.535 221.877 200.535 221.629C200.535 221.381 200.634 221.143 200.809 220.968C200.984 220.793 201.222 220.694 201.47 220.694H203.423C203.671 220.694 203.909 220.793 204.084 220.968C204.259 221.143 204.358 221.381 204.358 221.629C204.358 221.877 204.259 222.115 204.084 222.29C203.909 222.465 203.671 222.564 203.423 222.564Z" fill="#121212"/>
<path d="M200.261 266.239H185.596C185.39 266.248 185.187 266.189 185.018 266.071C184.849 265.952 184.723 265.781 184.662 265.585L180.867 253.556C180.793 253.319 180.816 253.063 180.93 252.843C181.045 252.623 181.243 252.457 181.479 252.383C181.716 252.309 181.973 252.331 182.193 252.446C182.413 252.561 182.578 252.758 182.652 252.995L186.241 264.37H199.532L204.289 249.528C204.563 248.668 205.104 247.918 205.834 247.387C206.563 246.856 207.443 246.571 208.345 246.574H210.532C210.78 246.574 211.018 246.673 211.193 246.848C211.368 247.023 211.467 247.261 211.467 247.509C211.467 247.757 211.368 247.994 211.193 248.17C211.018 248.345 210.78 248.443 210.532 248.443H208.345C207.84 248.443 207.348 248.603 206.94 248.9C206.532 249.198 206.229 249.617 206.074 250.098L201.158 265.613C201.093 265.798 200.972 265.958 200.81 266.071C200.649 266.183 200.457 266.242 200.261 266.239V266.239Z" fill="#121212"/>
<path d="M204.048 254.21H181.814C181.566 254.21 181.328 254.112 181.153 253.936C180.977 253.761 180.879 253.523 180.879 253.275C180.879 253.028 180.977 252.79 181.153 252.615C181.328 252.439 181.566 252.341 181.814 252.341H204.048C204.296 252.341 204.534 252.439 204.709 252.615C204.884 252.79 204.983 253.028 204.983 253.275C204.983 253.523 204.884 253.761 204.709 253.936C204.534 254.112 204.296 254.21 204.048 254.21Z" fill="#121212"/>
<path d="M190.58 266.239C190.348 266.24 190.123 266.155 189.95 265.999C189.778 265.844 189.669 265.629 189.646 265.398L188.477 253.369C188.453 253.121 188.527 252.874 188.685 252.681C188.843 252.488 189.071 252.366 189.319 252.341C189.566 252.316 189.814 252.391 190.007 252.549C190.2 252.706 190.322 252.934 190.347 253.182L191.515 265.211C191.528 265.334 191.516 265.458 191.481 265.576C191.445 265.695 191.387 265.805 191.309 265.9C191.23 265.996 191.134 266.075 191.025 266.133C190.916 266.191 190.797 266.227 190.674 266.239H190.58Z" fill="#121212"/>
<path d="M195.737 266.239H195.672C195.425 266.222 195.196 266.108 195.033 265.923C194.87 265.737 194.787 265.494 194.803 265.248L195.578 253.21C195.587 253.087 195.619 252.967 195.674 252.857C195.729 252.747 195.805 252.648 195.898 252.568C195.991 252.487 196.099 252.425 196.215 252.386C196.332 252.347 196.455 252.332 196.578 252.341C196.825 252.358 197.054 252.471 197.217 252.657C197.38 252.843 197.463 253.085 197.448 253.332L196.662 265.369C196.646 265.604 196.542 265.824 196.37 265.985C196.199 266.146 195.973 266.237 195.737 266.239Z" fill="#121212"/>
<path d="M202.299 259.902H183.607C183.359 259.902 183.121 259.803 182.946 259.628C182.77 259.453 182.672 259.215 182.672 258.967C182.672 258.719 182.77 258.482 182.946 258.306C183.121 258.131 183.359 258.033 183.607 258.033H202.299C202.547 258.033 202.785 258.131 202.96 258.306C203.135 258.482 203.234 258.719 203.234 258.967C203.234 259.215 203.135 259.453 202.96 259.628C202.785 259.803 202.547 259.902 202.299 259.902Z" fill="#121212"/>
<path d="M189.623 270.977C190.469 270.977 191.155 270.291 191.155 269.444C191.155 268.598 190.469 267.912 189.623 267.912C188.776 267.912 188.09 268.598 188.09 269.444C188.09 270.291 188.776 270.977 189.623 270.977Z" fill="#121212"/>
<path d="M196.517 270.977C197.364 270.977 198.05 270.291 198.05 269.444C198.05 268.598 197.364 267.912 196.517 267.912C195.671 267.912 194.984 268.598 194.984 269.444C194.984 270.291 195.671 270.977 196.517 270.977Z" fill="#121212"/>
<path d="M194.067 281.361C189.311 281.361 184.662 279.951 180.707 277.308C176.753 274.666 173.67 270.91 171.85 266.516C170.03 262.122 169.554 257.286 170.482 252.622C171.41 247.957 173.7 243.672 177.063 240.309C180.426 236.945 184.711 234.655 189.376 233.727C194.041 232.799 198.876 233.276 203.27 235.096C207.664 236.916 211.42 239.998 214.063 243.953C216.705 247.907 218.115 252.557 218.115 257.313C218.11 263.689 215.575 269.803 211.066 274.312C206.558 278.821 200.444 281.356 194.067 281.361V281.361ZM194.067 235.144C189.681 235.144 185.392 236.445 181.745 238.882C178.097 241.32 175.254 244.784 173.576 248.837C171.898 252.89 171.459 257.35 172.316 261.653C173.172 265.955 175.285 269.907 178.388 273.008C181.491 276.11 185.443 278.221 189.746 279.076C194.049 279.931 198.509 279.49 202.561 277.81C206.614 276.13 210.077 273.286 212.513 269.637C214.949 265.989 216.248 261.7 216.246 257.313C216.239 251.434 213.899 245.798 209.741 241.642C205.583 237.486 199.946 235.149 194.067 235.144V235.144Z" fill="#121212"/>
<path d="M216.234 287.035C223.11 287.035 228.684 281.461 228.684 274.585C228.684 267.71 223.11 262.136 216.234 262.136C209.359 262.136 203.785 267.71 203.785 274.585C203.785 281.461 209.359 287.035 216.234 287.035Z" fill="#00D0A6"/>
<path d="M216.095 282.436C215.184 282.452 214.288 282.201 213.517 281.715C212.747 281.228 212.135 280.527 211.758 279.697C211.658 279.47 211.652 279.213 211.741 278.982C211.83 278.75 212.008 278.564 212.235 278.464C212.462 278.363 212.719 278.357 212.95 278.446C213.182 278.536 213.368 278.713 213.469 278.94C213.699 279.439 214.071 279.859 214.538 280.148C215.004 280.437 215.546 280.582 216.095 280.567C216.81 280.589 217.505 280.329 218.03 279.843C218.555 279.357 218.867 278.683 218.899 277.968C218.899 276.267 217.029 275.604 215.87 275.351C212.188 274.557 211.637 272.389 211.637 271.164C211.666 270.018 212.149 268.93 212.98 268.14C213.81 267.35 214.921 266.921 216.067 266.949C216.927 266.938 217.771 267.176 218.498 267.636C219.224 268.096 219.802 268.756 220.16 269.538C220.217 269.651 220.251 269.775 220.258 269.902C220.266 270.028 220.247 270.155 220.204 270.275C220.161 270.394 220.094 270.503 220.007 270.596C219.92 270.688 219.816 270.762 219.699 270.813C219.583 270.864 219.458 270.891 219.331 270.891C219.204 270.892 219.078 270.867 218.961 270.818C218.844 270.769 218.739 270.696 218.651 270.604C218.563 270.513 218.495 270.404 218.45 270.286C218.237 269.837 217.899 269.46 217.476 269.199C217.053 268.939 216.563 268.806 216.067 268.818C215.416 268.79 214.781 269.022 214.301 269.462C213.821 269.901 213.535 270.514 213.506 271.164C213.506 272.332 214.441 273.127 216.31 273.529C219.17 274.146 220.805 275.772 220.805 277.968C220.79 278.571 220.655 279.165 220.41 279.715C220.165 280.266 219.813 280.763 219.376 281.178C218.938 281.593 218.423 281.918 217.86 282.133C217.297 282.349 216.697 282.452 216.095 282.436V282.436Z" fill="white"/>
<path d="M216.13 284.034C215.882 284.034 215.644 283.936 215.469 283.761C215.294 283.585 215.195 283.348 215.195 283.1V266.08C215.195 265.832 215.294 265.595 215.469 265.419C215.644 265.244 215.882 265.146 216.13 265.146C216.378 265.146 216.616 265.244 216.791 265.419C216.966 265.595 217.065 265.832 217.065 266.08V283.1C217.065 283.348 216.966 283.585 216.791 283.761C216.616 283.936 216.378 284.034 216.13 284.034V284.034Z" fill="white"/>
<path d="M113.984 398.04L116.957 370.001C117.33 366.498 118.466 363.119 120.284 360.101C122.102 357.084 124.558 354.501 127.48 352.533L159.641 330.821C159.641 330.821 167.118 342.439 155.491 353.252L148.098 360.103C146.055 361.987 144.501 364.339 143.569 366.957C142.638 369.576 142.358 372.381 142.752 375.132C143.239 378.933 144.242 382.649 145.734 386.179C149.472 394.273 149.678 404.872 149.678 405.685" fill="white"/>
<path d="M149.661 406.657C149.413 406.657 149.175 406.559 149 406.384C148.825 406.208 148.726 405.971 148.726 405.723C148.726 405.611 148.624 394.732 144.866 386.61C143.318 382.981 142.289 379.152 141.81 375.235C141.39 372.338 141.681 369.382 142.658 366.622C143.635 363.862 145.268 361.381 147.418 359.393L154.811 352.543C164.073 343.935 160.671 334.925 159.269 332.158L127.959 353.3C125.145 355.194 122.78 357.682 121.031 360.588C119.283 363.495 118.192 366.749 117.837 370.123L114.874 398.162C114.848 398.41 114.725 398.637 114.531 398.794C114.338 398.951 114.09 399.024 113.842 398.998C113.594 398.972 113.366 398.849 113.209 398.655C113.053 398.461 112.979 398.213 113.005 397.965L115.968 369.927C116.349 366.28 117.526 362.761 119.416 359.618C121.305 356.476 123.861 353.786 126.903 351.739L159.064 330.028C159.167 329.958 159.283 329.91 159.405 329.886C159.526 329.862 159.652 329.862 159.774 329.887C159.896 329.913 160.012 329.962 160.114 330.032C160.217 330.103 160.305 330.194 160.372 330.299C160.447 330.42 168.12 342.71 156.073 353.898L148.726 360.758C146.795 362.538 145.326 364.762 144.447 367.237C143.568 369.712 143.304 372.365 143.679 374.964C144.133 378.7 145.112 382.353 146.586 385.815C150.568 394.442 150.614 405.601 150.614 405.713C150.616 405.839 150.592 405.963 150.544 406.078C150.497 406.194 150.426 406.299 150.337 406.387C150.249 406.475 150.143 406.544 150.027 406.591C149.91 406.637 149.786 406.66 149.661 406.657V406.657Z" fill="#121212"/>
<path d="M117.332 368.561H117.258C117.135 368.552 117.015 368.518 116.905 368.462C116.795 368.407 116.698 368.329 116.618 368.236C116.538 368.142 116.477 368.033 116.439 367.916C116.402 367.799 116.388 367.675 116.398 367.552L117.332 356.337C117.949 345.626 120.977 336.485 124.193 326.802L137.903 289.679C137.941 289.558 138.003 289.445 138.086 289.348C138.169 289.252 138.27 289.173 138.385 289.117C138.499 289.061 138.623 289.029 138.751 289.023C138.878 289.016 139.005 289.036 139.124 289.081C139.243 289.125 139.352 289.194 139.443 289.282C139.535 289.37 139.608 289.476 139.657 289.593C139.707 289.711 139.732 289.837 139.731 289.964C139.73 290.091 139.703 290.217 139.651 290.333L125.959 327.419C122.8 336.952 119.8 345.981 119.202 356.467L118.267 367.683C118.253 367.921 118.148 368.145 117.974 368.308C117.8 368.471 117.571 368.562 117.332 368.561V368.561Z" fill="#121212"/>
<path d="M170.064 409.975C169.897 409.973 169.733 409.927 169.588 409.844C169.482 409.781 169.389 409.697 169.316 409.598C169.242 409.499 169.189 409.386 169.16 409.266C169.13 409.146 169.125 409.021 169.144 408.899C169.163 408.777 169.206 408.66 169.27 408.555L189.421 375.254C189.474 375.135 189.553 375.028 189.65 374.941C189.748 374.854 189.863 374.788 189.987 374.749C190.112 374.709 190.243 374.695 190.373 374.71C190.503 374.724 190.629 374.765 190.742 374.831C190.855 374.896 190.953 374.985 191.03 375.091C191.106 375.197 191.16 375.318 191.187 375.446C191.214 375.574 191.214 375.706 191.186 375.834C191.159 375.962 191.105 376.083 191.028 376.188L170.868 409.545C170.782 409.68 170.663 409.79 170.522 409.865C170.382 409.94 170.224 409.978 170.064 409.975V409.975Z" fill="#121212"/>
<path d="M232.115 295.418H155.271C155.023 295.418 154.785 295.319 154.61 295.144C154.434 294.969 154.336 294.731 154.336 294.483C154.336 294.235 154.434 293.997 154.61 293.822C154.785 293.647 155.023 293.548 155.271 293.548H232.144C232.391 293.548 232.629 293.647 232.804 293.822C232.98 293.997 233.078 294.235 233.078 294.483C233.078 294.731 232.98 294.969 232.804 295.144C232.629 295.319 232.391 295.418 232.144 295.418H232.115Z" fill="#121212"/>
<path d="M169.646 308.306V301.449H173.261C173.594 301.449 173.904 301.505 174.191 301.616C174.478 301.727 174.723 301.883 174.926 302.086C175.135 302.282 175.298 302.517 175.415 302.791C175.533 303.059 175.592 303.353 175.592 303.673C175.592 303.98 175.533 304.267 175.415 304.535C175.298 304.802 175.135 305.034 174.926 305.23C174.717 305.419 174.469 305.57 174.181 305.681C173.9 305.792 173.594 305.847 173.261 305.847H171.331V308.306H169.646ZM173.065 302.889H171.331V304.456H173.065C173.306 304.456 173.502 304.384 173.652 304.241C173.809 304.097 173.887 303.911 173.887 303.682C173.887 303.447 173.809 303.258 173.652 303.114C173.502 302.964 173.306 302.889 173.065 302.889ZM177.842 308.394C177.294 308.394 176.843 308.244 176.491 307.943C176.138 307.643 175.962 307.258 175.962 306.787C175.962 306.298 176.148 305.916 176.52 305.641C176.899 305.367 177.424 305.23 178.097 305.23C178.299 305.23 178.499 305.243 178.695 305.269C178.89 305.295 179.083 305.331 179.272 305.377V305.122C179.272 304.861 179.188 304.669 179.018 304.544C178.855 304.414 178.61 304.349 178.283 304.349C178.081 304.349 177.852 304.381 177.598 304.446C177.343 304.512 177.049 304.616 176.716 304.76L176.148 303.594C176.566 303.405 176.974 303.265 177.372 303.173C177.777 303.075 178.175 303.026 178.567 303.026C179.286 303.026 179.844 303.199 180.242 303.545C180.64 303.885 180.84 304.365 180.84 304.985V308.306H179.272V307.992C179.063 308.136 178.841 308.24 178.606 308.306C178.378 308.364 178.123 308.394 177.842 308.394ZM177.47 306.758C177.47 306.921 177.542 307.049 177.686 307.14C177.829 307.231 178.028 307.277 178.283 307.277C178.473 307.277 178.649 307.258 178.812 307.218C178.982 307.179 179.135 307.117 179.272 307.032V306.366C179.122 306.327 178.969 306.298 178.812 306.278C178.655 306.259 178.495 306.249 178.332 306.249C178.058 306.249 177.846 306.294 177.695 306.386C177.545 306.471 177.47 306.595 177.47 306.758ZM184.183 308.325C183.817 308.325 183.471 308.257 183.144 308.12C182.824 307.982 182.547 307.796 182.312 307.561C182.077 307.32 181.891 307.039 181.753 306.719C181.616 306.392 181.548 306.046 181.548 305.681C181.548 305.315 181.616 304.972 181.753 304.652C181.897 304.332 182.09 304.055 182.331 303.82C182.573 303.585 182.857 303.398 183.183 303.261C183.516 303.124 183.869 303.056 184.241 303.056C184.476 303.056 184.705 303.085 184.927 303.144C185.149 303.203 185.355 303.287 185.544 303.398V303.124H187.111V308.257C187.111 308.955 186.879 309.491 186.416 309.863C185.952 310.242 185.289 310.431 184.427 310.431C184.016 310.431 183.621 310.392 183.242 310.314C182.863 310.235 182.521 310.124 182.214 309.981L182.743 308.746C183.023 308.877 183.301 308.975 183.575 309.04C183.849 309.106 184.124 309.138 184.398 309.138C184.77 309.138 185.051 309.063 185.24 308.913C185.43 308.763 185.524 308.537 185.524 308.237V307.914C185.329 308.044 185.116 308.146 184.888 308.218C184.659 308.289 184.424 308.325 184.183 308.325ZM183.105 305.681C183.105 306.053 183.236 306.366 183.497 306.621C183.758 306.869 184.078 306.993 184.457 306.993C184.672 306.993 184.868 306.961 185.044 306.895C185.227 306.83 185.387 306.735 185.524 306.611V304.78C185.387 304.662 185.227 304.571 185.044 304.505C184.862 304.433 184.669 304.398 184.467 304.398C184.088 304.398 183.765 304.522 183.497 304.77C183.236 305.018 183.105 305.321 183.105 305.681ZM189.742 308.394C189.193 308.394 188.743 308.244 188.39 307.943C188.037 307.643 187.861 307.258 187.861 306.787C187.861 306.298 188.047 305.916 188.419 305.641C188.798 305.367 189.324 305.23 189.996 305.23C190.199 305.23 190.398 305.243 190.594 305.269C190.79 305.295 190.982 305.331 191.172 305.377V305.122C191.172 304.861 191.087 304.669 190.917 304.544C190.754 304.414 190.509 304.349 190.182 304.349C189.98 304.349 189.751 304.381 189.497 304.446C189.242 304.512 188.948 304.616 188.615 304.76L188.047 303.594C188.465 303.405 188.873 303.265 189.271 303.173C189.676 303.075 190.075 303.026 190.466 303.026C191.185 303.026 191.743 303.199 192.141 303.545C192.54 303.885 192.739 304.365 192.739 304.985V308.306H191.172V307.992C190.963 308.136 190.741 308.24 190.506 308.306C190.277 308.364 190.022 308.394 189.742 308.394ZM189.369 306.758C189.369 306.921 189.441 307.049 189.585 307.14C189.729 307.231 189.928 307.277 190.182 307.277C190.372 307.277 190.548 307.258 190.711 307.218C190.881 307.179 191.035 307.117 191.172 307.032V306.366C191.022 306.327 190.868 306.298 190.711 306.278C190.555 306.259 190.395 306.249 190.231 306.249C189.957 306.249 189.745 306.294 189.595 306.386C189.445 306.471 189.369 306.595 189.369 306.758ZM190.437 300.989H192.21L190.839 302.321H189.575L190.437 300.989ZM193.682 308.306V303.124H195.269V303.643C195.439 303.441 195.638 303.284 195.866 303.173C196.095 303.062 196.349 303.007 196.63 303.007C196.78 303.013 196.901 303.026 196.993 303.046C197.084 303.059 197.162 303.088 197.228 303.134V304.515C197.123 304.469 197.006 304.433 196.875 304.407C196.745 304.375 196.611 304.358 196.474 304.358C196.225 304.358 195.994 304.417 195.778 304.535C195.569 304.652 195.399 304.812 195.269 305.015V308.306H193.682ZM202.409 307.032C202.624 307.032 202.823 306.987 203.006 306.895C203.189 306.804 203.365 306.663 203.535 306.474L204.476 307.454C204.214 307.754 203.894 307.989 203.516 308.159C203.137 308.322 202.742 308.404 202.33 308.404C201.945 308.404 201.583 308.335 201.243 308.198C200.91 308.061 200.62 307.871 200.371 307.63C200.13 307.388 199.937 307.104 199.794 306.778C199.656 306.451 199.588 306.099 199.588 305.72C199.588 305.341 199.656 304.988 199.794 304.662C199.937 304.329 200.13 304.045 200.371 303.81C200.62 303.568 200.91 303.379 201.243 303.242C201.583 303.098 201.945 303.026 202.33 303.026C202.755 303.026 203.16 303.111 203.545 303.281C203.93 303.451 204.257 303.686 204.524 303.986L203.555 304.995C203.372 304.793 203.186 304.642 202.996 304.544C202.807 304.446 202.598 304.398 202.37 304.398C202.03 304.398 201.743 304.525 201.508 304.78C201.279 305.034 201.165 305.348 201.165 305.72C201.165 306.092 201.282 306.405 201.517 306.66C201.759 306.908 202.056 307.032 202.409 307.032ZM204.677 305.72C204.677 305.348 204.748 304.998 204.892 304.672C205.042 304.339 205.241 304.051 205.49 303.81C205.744 303.568 206.041 303.379 206.381 303.242C206.727 303.098 207.096 303.026 207.488 303.026C207.88 303.026 208.245 303.098 208.585 303.242C208.931 303.379 209.228 303.568 209.476 303.81C209.731 304.051 209.93 304.339 210.074 304.672C210.224 304.998 210.299 305.348 210.299 305.72C210.299 306.092 210.224 306.445 210.074 306.778C209.93 307.104 209.731 307.388 209.476 307.63C209.228 307.871 208.931 308.061 208.585 308.198C208.245 308.335 207.88 308.404 207.488 308.404C207.096 308.404 206.727 308.335 206.381 308.198C206.041 308.061 205.744 307.871 205.49 307.63C205.241 307.388 205.042 307.104 204.892 306.778C204.748 306.445 204.677 306.092 204.677 305.72ZM207.488 307.032C207.84 307.032 208.137 306.905 208.379 306.65C208.627 306.396 208.751 306.085 208.751 305.72C208.751 305.348 208.627 305.034 208.379 304.78C208.137 304.525 207.84 304.398 207.488 304.398C207.135 304.398 206.835 304.525 206.587 304.78C206.345 305.034 206.224 305.348 206.224 305.72C206.224 306.085 206.345 306.396 206.587 306.65C206.835 306.905 207.135 307.032 207.488 307.032ZM211.043 308.306V303.124H212.63V303.477C212.819 303.333 213.031 303.222 213.266 303.144C213.508 303.065 213.759 303.026 214.021 303.026C214.628 303.026 215.124 303.222 215.51 303.614C215.895 304.006 216.087 304.505 216.087 305.113V308.306H214.501V305.328C214.501 305.047 214.412 304.822 214.236 304.652C214.066 304.476 213.841 304.388 213.56 304.388C213.358 304.388 213.178 304.424 213.022 304.495C212.865 304.567 212.734 304.669 212.63 304.799V308.306H211.043Z" fill="#121212"/>
<path d="M252.098 413.088C234.788 407.62 213.441 407.312 213.441 407.312V404.059C213.442 402.131 214.077 400.256 215.247 398.722C216.417 397.189 218.058 396.083 219.918 395.573L242.349 389.404C243.958 388.961 245.453 388.176 246.731 387.103C248.01 386.03 249.043 384.695 249.759 383.187C250.475 381.68 250.859 380.036 250.884 378.367C250.908 376.698 250.573 375.043 249.901 373.516L228.489 325.102C228.489 325.102 225.115 317.625 225.162 313.092C225.227 307.858 232.452 305.559 235.246 309.999L265.631 358.253" fill="white"/>
<path d="M252.092 414.022C251.997 414.025 251.901 414.009 251.812 413.975C234.839 408.62 213.632 408.246 213.427 408.246C213.179 408.246 212.941 408.148 212.766 407.972C212.591 407.797 212.492 407.559 212.492 407.311V404.059C212.507 401.934 213.213 399.873 214.505 398.186C215.797 396.499 217.604 395.28 219.651 394.713L242.082 388.544C243.564 388.138 244.94 387.416 246.117 386.43C247.294 385.443 248.245 384.214 248.904 382.827C249.563 381.439 249.915 379.926 249.936 378.39C249.958 376.854 249.647 375.332 249.027 373.927L227.652 325.429C227.512 325.121 224.203 317.681 224.25 313.036C224.295 311.63 224.792 310.276 225.668 309.175C226.543 308.074 227.75 307.284 229.11 306.923C230.386 306.519 231.76 306.548 233.018 307.006C234.275 307.465 235.346 308.326 236.063 309.456L266.439 357.711C266.515 357.814 266.568 357.933 266.596 358.058C266.624 358.183 266.627 358.313 266.602 358.439C266.578 358.565 266.528 358.685 266.456 358.79C266.383 358.896 266.29 358.986 266.181 359.054C266.072 359.123 265.951 359.168 265.824 359.187C265.697 359.206 265.567 359.199 265.443 359.166C265.319 359.133 265.203 359.074 265.103 358.994C265.002 358.915 264.92 358.815 264.859 358.702L234.484 310.475C233.978 309.689 233.225 309.093 232.343 308.782C231.462 308.471 230.502 308.461 229.615 308.755C228.637 308.995 227.765 309.549 227.134 310.333C226.502 311.116 226.146 312.086 226.119 313.092C226.119 317.316 229.325 324.625 229.362 324.7L250.784 373.095C251.513 374.746 251.878 376.535 251.854 378.34C251.829 380.145 251.416 381.923 250.641 383.554C249.867 385.185 248.75 386.629 247.366 387.788C245.983 388.948 244.365 389.796 242.625 390.273L220.193 396.442C218.533 396.903 217.069 397.894 216.025 399.264C214.98 400.634 214.413 402.308 214.408 404.031V406.368C218.707 406.508 237.204 407.368 252.41 412.172C252.658 412.209 252.881 412.343 253.03 412.544C253.179 412.746 253.242 412.998 253.205 413.246C253.167 413.494 253.033 413.717 252.832 413.866C252.63 414.015 252.378 414.078 252.13 414.041L252.092 414.022Z" fill="#121212"/>
<path d="M283.141 363.58C283.003 363.579 282.867 363.547 282.742 363.488C282.618 363.428 282.508 363.341 282.421 363.234L262.654 338.934C262.512 338.74 262.45 338.5 262.48 338.262C262.511 338.024 262.632 337.807 262.818 337.656C263.004 337.504 263.241 337.43 263.48 337.449C263.719 337.468 263.942 337.578 264.102 337.756L283.87 362.056C284.025 362.248 284.098 362.492 284.073 362.737C284.049 362.982 283.929 363.208 283.739 363.365C283.571 363.504 283.359 363.58 283.141 363.58Z" fill="#121212"/>
<path d="M293.791 360.945C293.544 360.941 293.309 360.841 293.136 360.664L278.351 345.888C278.263 345.801 278.194 345.698 278.146 345.584C278.099 345.47 278.074 345.348 278.074 345.224C278.074 345.101 278.099 344.979 278.146 344.865C278.194 344.751 278.263 344.648 278.351 344.561C278.526 344.387 278.763 344.289 279.01 344.289C279.257 344.289 279.493 344.387 279.669 344.561L294.454 359.347C294.628 359.522 294.726 359.759 294.726 360.006C294.726 360.252 294.628 360.489 294.454 360.664C294.368 360.753 294.265 360.823 294.151 360.871C294.037 360.919 293.914 360.944 293.791 360.945Z" fill="#121212"/>
<path d="M64.1876 53V39H69.1276C70.1809 39 71.1542 39.18 72.0476 39.54C72.9542 39.8867 73.7342 40.3733 74.3876 41C75.0542 41.6133 75.5742 42.3533 75.9476 43.22C76.3209 44.0867 76.5076 45.02 76.5076 46.02C76.5076 47.02 76.3209 47.9467 75.9476 48.8C75.5742 49.6533 75.0609 50.3933 74.4076 51.02C73.7542 51.6333 72.9742 52.12 72.0676 52.48C71.1609 52.8267 70.1809 53 69.1276 53H64.1876ZM69.1676 40.88H66.2876V51.12H69.1676C69.8876 51.12 70.5676 50.9933 71.2076 50.74C71.8476 50.4733 72.3942 50.1133 72.8476 49.66C73.3142 49.1933 73.6809 48.6533 73.9476 48.04C74.2142 47.4133 74.3476 46.74 74.3476 46.02C74.3476 45.3 74.2142 44.6267 73.9476 44C73.6809 43.36 73.3142 42.8133 72.8476 42.36C72.3942 41.8933 71.8476 41.5333 71.2076 41.28C70.5676 41.0133 69.8876 40.88 69.1676 40.88ZM87.3184 51.84C86.7317 52.2933 86.1184 52.6333 85.4784 52.86C84.8384 53.0733 84.1384 53.18 83.3784 53.18C82.6317 53.18 81.9317 53.0467 81.2784 52.78C80.625 52.5 80.0584 52.1267 79.5784 51.66C79.0984 51.1933 78.7184 50.64 78.4384 50C78.1717 49.3467 78.0384 48.6467 78.0384 47.9C78.0384 47.1667 78.1717 46.48 78.4384 45.84C78.705 45.2 79.065 44.6467 79.5184 44.18C79.9717 43.7133 80.5117 43.3467 81.1384 43.08C81.765 42.8 82.4317 42.66 83.1384 42.66C83.8317 42.66 84.4784 42.8 85.0784 43.08C85.6917 43.3467 86.2117 43.72 86.6384 44.2C87.0784 44.6667 87.425 45.2267 87.6784 45.88C87.9317 46.5333 88.0584 47.2333 88.0584 47.98V48.56H80.0184C80.1517 49.4 80.5384 50.1 81.1784 50.66C81.8184 51.2067 82.5784 51.48 83.4584 51.48C83.9517 51.48 84.425 51.4 84.8784 51.24C85.3317 51.08 85.7184 50.86 86.0384 50.58L87.3184 51.84ZM83.0984 44.34C82.3384 44.34 81.6717 44.5933 81.0984 45.1C80.5384 45.6067 80.185 46.26 80.0384 47.06H86.0784C85.9317 46.2867 85.5784 45.64 85.0184 45.12C84.4717 44.6 83.8317 44.34 83.0984 44.34ZM89.1009 51.68L90.1809 50.36C90.7142 50.7733 91.2542 51.0933 91.8009 51.32C92.3609 51.5333 92.9275 51.64 93.5009 51.64C94.2209 51.64 94.8075 51.5 95.2609 51.22C95.7142 50.94 95.9409 50.5733 95.9409 50.12C95.9409 49.76 95.8075 49.4733 95.5409 49.26C95.2742 49.0467 94.8609 48.9 94.3009 48.82L92.4609 48.56C91.4609 48.4133 90.7009 48.1067 90.1809 47.64C89.6742 47.16 89.4209 46.5267 89.4209 45.74C89.4209 44.82 89.7875 44.08 90.5209 43.52C91.2542 42.9467 92.2142 42.66 93.4009 42.66C94.1475 42.66 94.8542 42.7667 95.5209 42.98C96.2009 43.1933 96.8609 43.52 97.5009 43.96L96.4809 45.28C95.9209 44.9067 95.3742 44.64 94.8409 44.48C94.3209 44.3067 93.7942 44.22 93.2609 44.22C92.6475 44.22 92.1542 44.3467 91.7809 44.6C91.4075 44.8533 91.2209 45.1867 91.2209 45.6C91.2209 45.9733 91.3475 46.26 91.6009 46.46C91.8675 46.6467 92.3009 46.7867 92.9009 46.88L94.7409 47.14C95.7409 47.2867 96.5009 47.6 97.0209 48.08C97.5542 48.56 97.8209 49.1933 97.8209 49.98C97.8209 50.4333 97.7075 50.86 97.4809 51.26C97.2675 51.6467 96.9675 51.98 96.5809 52.26C96.2075 52.54 95.7609 52.7667 95.2409 52.94C94.7209 53.1 94.1609 53.18 93.5609 53.18C92.6809 53.18 91.8542 53.0533 91.0809 52.8C90.3209 52.5467 89.6609 52.1733 89.1009 51.68ZM107.255 53V52.04C106.829 52.4 106.349 52.68 105.815 52.88C105.282 53.0667 104.722 53.16 104.135 53.16C103.415 53.16 102.742 53.0267 102.115 52.76C101.489 52.48 100.942 52.1067 100.475 51.64C100.022 51.1733 99.6621 50.62 99.3954 49.98C99.1287 49.3267 98.9954 48.6333 98.9954 47.9C98.9954 47.1667 99.1287 46.48 99.3954 45.84C99.6621 45.2 100.022 44.6467 100.475 44.18C100.942 43.7133 101.495 43.3467 102.135 43.08C102.775 42.8 103.455 42.66 104.175 42.66C104.735 42.66 105.275 42.7467 105.795 42.92C106.315 43.0933 106.795 43.34 107.235 43.66V39L109.235 38.56V53H107.255ZM100.955 47.88C100.955 48.88 101.289 49.72 101.955 50.4C102.622 51.08 103.442 51.42 104.415 51.42C104.989 51.42 105.515 51.3133 105.995 51.1C106.489 50.8867 106.902 50.5867 107.235 50.2V45.58C106.902 45.2067 106.489 44.9133 105.995 44.7C105.502 44.4867 104.975 44.38 104.415 44.38C103.442 44.38 102.622 44.7133 101.955 45.38C101.289 46.0467 100.955 46.88 100.955 47.88ZM120.424 51.84C119.837 52.2933 119.224 52.6333 118.584 52.86C117.944 53.0733 117.244 53.18 116.484 53.18C115.737 53.18 115.037 53.0467 114.384 52.78C113.73 52.5 113.164 52.1267 112.684 51.66C112.204 51.1933 111.824 50.64 111.544 50C111.277 49.3467 111.144 48.6467 111.144 47.9C111.144 47.1667 111.277 46.48 111.544 45.84C111.81 45.2 112.17 44.6467 112.624 44.18C113.077 43.7133 113.617 43.3467 114.244 43.08C114.87 42.8 115.537 42.66 116.244 42.66C116.937 42.66 117.584 42.8 118.184 43.08C118.797 43.3467 119.317 43.72 119.744 44.2C120.184 44.6667 120.53 45.2267 120.784 45.88C121.037 46.5333 121.164 47.2333 121.164 47.98V48.56H113.124C113.257 49.4 113.644 50.1 114.284 50.66C114.924 51.2067 115.684 51.48 116.564 51.48C117.057 51.48 117.53 51.4 117.984 51.24C118.437 51.08 118.824 50.86 119.144 50.58L120.424 51.84ZM116.204 44.34C115.444 44.34 114.777 44.5933 114.204 45.1C113.644 45.6067 113.29 46.26 113.144 47.06H119.184C119.037 46.2867 118.684 45.64 118.124 45.12C117.577 44.6 116.937 44.34 116.204 44.34ZM128.568 50.48V44.5H126.408V42.82H128.568V40.22L130.548 39.74V42.82H133.548V44.5H130.548V50.02C130.548 50.54 130.662 50.9067 130.888 51.12C131.128 51.3333 131.515 51.44 132.048 51.44C132.328 51.44 132.575 51.4267 132.788 51.4C133.015 51.36 133.255 51.2933 133.508 51.2V52.88C133.242 52.9733 132.928 53.0467 132.568 53.1C132.222 53.1533 131.902 53.18 131.608 53.18C130.622 53.18 129.868 52.9533 129.348 52.5C128.828 52.0333 128.568 51.36 128.568 50.48ZM136.982 42.82V48.86C136.982 49.66 137.208 50.2933 137.662 50.76C138.128 51.2267 138.742 51.46 139.502 51.46C140.035 51.46 140.515 51.3467 140.942 51.12C141.368 50.88 141.722 50.5467 142.002 50.12V42.82H144.002V53H142.002V51.98C141.602 52.38 141.142 52.6867 140.622 52.9C140.115 53.1 139.555 53.2 138.942 53.2C137.782 53.2 136.828 52.8267 136.082 52.08C135.348 51.3333 134.982 50.3733 134.982 49.2V42.82H136.982ZM155.409 51.42C155.916 51.42 156.396 51.32 156.849 51.12C157.302 50.9067 157.736 50.5933 158.149 50.18L159.349 51.48C158.816 52.0133 158.202 52.4333 157.509 52.74C156.816 53.0333 156.089 53.18 155.329 53.18C154.596 53.18 153.909 53.0467 153.269 52.78C152.629 52.5 152.076 52.1267 151.609 51.66C151.142 51.1933 150.769 50.64 150.489 50C150.222 49.3467 150.089 48.6467 150.089 47.9C150.089 47.1667 150.222 46.48 150.489 45.84C150.769 45.1867 151.142 44.6267 151.609 44.16C152.076 43.68 152.629 43.3067 153.269 43.04C153.909 42.76 154.596 42.62 155.329 42.62C156.089 42.62 156.829 42.7733 157.549 43.08C158.269 43.3733 158.896 43.7867 159.429 44.32L158.169 45.68C157.782 45.2667 157.349 44.9533 156.869 44.74C156.389 44.5133 155.889 44.4 155.369 44.4C154.449 44.4 153.669 44.74 153.029 45.42C152.389 46.1 152.069 46.9267 152.069 47.9C152.069 48.9 152.389 49.74 153.029 50.42C153.682 51.0867 154.476 51.42 155.409 51.42ZM169.408 51.84C168.822 52.2933 168.208 52.6333 167.568 52.86C166.928 53.0733 166.228 53.18 165.468 53.18C164.722 53.18 164.022 53.0467 163.368 52.78C162.715 52.5 162.148 52.1267 161.668 51.66C161.188 51.1933 160.808 50.64 160.528 50C160.262 49.3467 160.128 48.6467 160.128 47.9C160.128 47.1667 160.262 46.48 160.528 45.84C160.795 45.2 161.155 44.6467 161.608 44.18C162.062 43.7133 162.602 43.3467 163.228 43.08C163.855 42.8 164.522 42.66 165.228 42.66C165.922 42.66 166.568 42.8 167.168 43.08C167.782 43.3467 168.302 43.72 168.728 44.2C169.168 44.6667 169.515 45.2267 169.768 45.88C170.022 46.5333 170.148 47.2333 170.148 47.98V48.56H162.108C162.242 49.4 162.628 50.1 163.268 50.66C163.908 51.2067 164.668 51.48 165.548 51.48C166.042 51.48 166.515 51.4 166.968 51.24C167.422 51.08 167.808 50.86 168.128 50.58L169.408 51.84ZM165.188 44.34C164.428 44.34 163.762 44.5933 163.188 45.1C162.628 45.6067 162.275 46.26 162.128 47.06H168.168C168.022 46.2867 167.668 45.64 167.108 45.12C166.562 44.6 165.922 44.34 165.188 44.34ZM174.053 38.56V53H172.053V39L174.053 38.56ZM178.369 42.82V48.86C178.369 49.66 178.595 50.2933 179.049 50.76C179.515 51.2267 180.129 51.46 180.889 51.46C181.422 51.46 181.902 51.3467 182.329 51.12C182.755 50.88 183.109 50.5467 183.389 50.12V42.82H185.389V53H183.389V51.98C182.989 52.38 182.529 52.6867 182.009 52.9C181.502 53.1 180.942 53.2 180.329 53.2C179.169 53.2 178.215 52.8267 177.469 52.08C176.735 51.3333 176.369 50.3733 176.369 49.2V42.82H178.369ZM189.756 38.56V53H187.756V39L189.756 38.56ZM195.332 53.18C194.225 53.18 193.325 52.8933 192.632 52.32C191.938 51.7467 191.592 51 191.592 50.08C191.592 49.12 191.958 48.3667 192.692 47.82C193.425 47.26 194.432 46.98 195.712 46.98C196.205 46.98 196.685 47.0333 197.152 47.14C197.618 47.2333 198.065 47.3667 198.492 47.54V46.46C198.492 45.74 198.278 45.2 197.852 44.84C197.425 44.48 196.812 44.3 196.012 44.3C195.545 44.3 195.058 44.3733 194.552 44.52C194.045 44.6533 193.478 44.8667 192.852 45.16L192.112 43.66C192.872 43.3 193.592 43.04 194.272 42.88C194.952 42.7067 195.625 42.62 196.292 42.62C197.612 42.62 198.632 42.94 199.352 43.58C200.085 44.2067 200.452 45.1 200.452 46.26V53H198.492V52.12C198.038 52.48 197.552 52.7467 197.032 52.92C196.512 53.0933 195.945 53.18 195.332 53.18ZM193.512 50.04C193.512 50.5333 193.718 50.9333 194.132 51.24C194.558 51.5467 195.112 51.7 195.792 51.7C196.325 51.7 196.818 51.62 197.272 51.46C197.725 51.3 198.132 51.06 198.492 50.74V48.98C198.105 48.7667 197.698 48.6133 197.272 48.52C196.845 48.4133 196.378 48.36 195.872 48.36C195.152 48.36 194.578 48.5133 194.152 48.82C193.725 49.1267 193.512 49.5333 193.512 50.04ZM202.756 53V42.82H204.756V44.12C205.063 43.6267 205.456 43.2533 205.936 43C206.416 42.7333 206.956 42.6 207.556 42.6C207.77 42.6 207.956 42.6133 208.116 42.64C208.276 42.6667 208.43 42.7067 208.576 42.76V44.56C208.39 44.4933 208.196 44.44 207.996 44.4C207.796 44.36 207.596 44.34 207.396 44.34C206.81 44.34 206.283 44.5 205.816 44.82C205.363 45.1267 205.01 45.5867 204.756 46.2V53H202.756ZM213.398 51.68L214.478 50.36C215.011 50.7733 215.551 51.0933 216.098 51.32C216.658 51.5333 217.224 51.64 217.798 51.64C218.518 51.64 219.104 51.5 219.558 51.22C220.011 50.94 220.238 50.5733 220.238 50.12C220.238 49.76 220.104 49.4733 219.838 49.26C219.571 49.0467 219.158 48.9 218.598 48.82L216.758 48.56C215.758 48.4133 214.998 48.1067 214.478 47.64C213.971 47.16 213.718 46.5267 213.718 45.74C213.718 44.82 214.084 44.08 214.818 43.52C215.551 42.9467 216.511 42.66 217.698 42.66C218.444 42.66 219.151 42.7667 219.818 42.98C220.498 43.1933 221.158 43.52 221.798 43.96L220.778 45.28C220.218 44.9067 219.671 44.64 219.138 44.48C218.618 44.3067 218.091 44.22 217.558 44.22C216.944 44.22 216.451 44.3467 216.078 44.6C215.704 44.8533 215.518 45.1867 215.518 45.6C215.518 45.9733 215.644 46.26 215.898 46.46C216.164 46.6467 216.598 46.7867 217.198 46.88L219.038 47.14C220.038 47.2867 220.798 47.6 221.318 48.08C221.851 48.56 222.118 49.1933 222.118 49.98C222.118 50.4333 222.004 50.86 221.778 51.26C221.564 51.6467 221.264 51.98 220.878 52.26C220.504 52.54 220.058 52.7667 219.538 52.94C219.018 53.1 218.458 53.18 217.858 53.18C216.978 53.18 216.151 53.0533 215.378 52.8C214.618 52.5467 213.958 52.1733 213.398 51.68ZM232.572 51.84C231.986 52.2933 231.372 52.6333 230.732 52.86C230.092 53.0733 229.392 53.18 228.632 53.18C227.886 53.18 227.186 53.0467 226.532 52.78C225.879 52.5 225.312 52.1267 224.832 51.66C224.352 51.1933 223.972 50.64 223.692 50C223.426 49.3467 223.292 48.6467 223.292 47.9C223.292 47.1667 223.426 46.48 223.692 45.84C223.959 45.2 224.319 44.6467 224.772 44.18C225.226 43.7133 225.766 43.3467 226.392 43.08C227.019 42.8 227.686 42.66 228.392 42.66C229.086 42.66 229.732 42.8 230.332 43.08C230.946 43.3467 231.466 43.72 231.892 44.2C232.332 44.6667 232.679 45.2267 232.932 45.88C233.186 46.5333 233.312 47.2333 233.312 47.98V48.56H225.272C225.406 49.4 225.792 50.1 226.432 50.66C227.072 51.2067 227.832 51.48 228.712 51.48C229.206 51.48 229.679 51.4 230.132 51.24C230.586 51.08 230.972 50.86 231.292 50.58L232.572 51.84ZM228.352 44.34C227.592 44.34 226.926 44.5933 226.352 45.1C225.792 45.6067 225.439 46.26 225.292 47.06H231.332C231.186 46.2867 230.832 45.64 230.272 45.12C229.726 44.6 229.086 44.34 228.352 44.34ZM237.217 38.56V53H235.217V39L237.217 38.56ZM248.393 51.84C247.806 52.2933 247.193 52.6333 246.553 52.86C245.913 53.0733 245.213 53.18 244.453 53.18C243.706 53.18 243.006 53.0467 242.353 52.78C241.699 52.5 241.133 52.1267 240.653 51.66C240.173 51.1933 239.793 50.64 239.513 50C239.246 49.3467 239.113 48.6467 239.113 47.9C239.113 47.1667 239.246 46.48 239.513 45.84C239.779 45.2 240.139 44.6467 240.593 44.18C241.046 43.7133 241.586 43.3467 242.213 43.08C242.839 42.8 243.506 42.66 244.213 42.66C244.906 42.66 245.553 42.8 246.153 43.08C246.766 43.3467 247.286 43.72 247.713 44.2C248.153 44.6667 248.499 45.2267 248.753 45.88C249.006 46.5333 249.133 47.2333 249.133 47.98V48.56H241.093C241.226 49.4 241.613 50.1 242.253 50.66C242.893 51.2067 243.653 51.48 244.533 51.48C245.026 51.48 245.499 51.4 245.953 51.24C246.406 51.08 246.793 50.86 247.113 50.58L248.393 51.84ZM244.173 44.34C243.413 44.34 242.746 44.5933 242.173 45.1C241.613 45.6067 241.259 46.26 241.113 47.06H247.153C247.006 46.2867 246.653 45.64 246.093 45.12C245.546 44.6 244.906 44.34 244.173 44.34ZM255.936 51.42C256.443 51.42 256.923 51.32 257.376 51.12C257.83 50.9067 258.263 50.5933 258.676 50.18L259.876 51.48C259.343 52.0133 258.73 52.4333 258.036 52.74C257.343 53.0333 256.616 53.18 255.856 53.18C255.123 53.18 254.436 53.0467 253.796 52.78C253.156 52.5 252.603 52.1267 252.136 51.66C251.67 51.1933 251.296 50.64 251.016 50C250.75 49.3467 250.616 48.6467 250.616 47.9C250.616 47.1667 250.75 46.48 251.016 45.84C251.296 45.1867 251.67 44.6267 252.136 44.16C252.603 43.68 253.156 43.3067 253.796 43.04C254.436 42.76 255.123 42.62 255.856 42.62C256.616 42.62 257.356 42.7733 258.076 43.08C258.796 43.3733 259.423 43.7867 259.956 44.32L258.696 45.68C258.31 45.2667 257.876 44.9533 257.396 44.74C256.916 44.5133 256.416 44.4 255.896 44.4C254.976 44.4 254.196 44.74 253.556 45.42C252.916 46.1 252.596 46.9267 252.596 47.9C252.596 48.9 252.916 49.74 253.556 50.42C254.21 51.0867 255.003 51.42 255.936 51.42ZM265.976 51.42C266.482 51.42 266.962 51.32 267.416 51.12C267.869 50.9067 268.302 50.5933 268.716 50.18L269.916 51.48C269.382 52.0133 268.769 52.4333 268.076 52.74C267.382 53.0333 266.656 53.18 265.896 53.18C265.162 53.18 264.476 53.0467 263.836 52.78C263.196 52.5 262.642 52.1267 262.176 51.66C261.709 51.1933 261.336 50.64 261.056 50C260.789 49.3467 260.656 48.6467 260.656 47.9C260.656 47.1667 260.789 46.48 261.056 45.84C261.336 45.1867 261.709 44.6267 262.176 44.16C262.642 43.68 263.196 43.3067 263.836 43.04C264.476 42.76 265.162 42.62 265.896 42.62C266.656 42.62 267.396 42.7733 268.116 43.08C268.836 43.3733 269.462 43.7867 269.996 44.32L268.736 45.68C268.349 45.2667 267.916 44.9533 267.436 44.74C266.956 44.5133 266.456 44.4 265.936 44.4C265.016 44.4 264.236 44.74 263.596 45.42C262.956 46.1 262.636 46.9267 262.636 47.9C262.636 48.9 262.956 49.74 263.596 50.42C264.249 51.0867 265.042 51.42 265.976 51.42ZM272.545 41.18C272.212 41.18 271.925 41.06 271.685 40.82C271.445 40.5667 271.325 40.2733 271.325 39.94C271.325 39.6067 271.445 39.32 271.685 39.08C271.925 38.8267 272.212 38.7 272.545 38.7C272.879 38.7 273.165 38.8267 273.405 39.08C273.659 39.32 273.785 39.6067 273.785 39.94C273.785 40.2733 273.659 40.5667 273.405 40.82C273.165 41.06 272.879 41.18 272.545 41.18ZM273.545 42.82V53H271.545V42.82H273.545ZM275.441 47.9C275.441 47.1667 275.574 46.48 275.841 45.84C276.121 45.1867 276.501 44.6267 276.981 44.16C277.461 43.68 278.021 43.3067 278.661 43.04C279.314 42.76 280.007 42.62 280.741 42.62C281.474 42.62 282.161 42.76 282.801 43.04C283.454 43.3067 284.014 43.68 284.481 44.16C284.961 44.6267 285.334 45.1867 285.601 45.84C285.881 46.48 286.021 47.1667 286.021 47.9C286.021 48.6467 285.881 49.3467 285.601 50C285.334 50.64 284.961 51.2 284.481 51.68C284.014 52.1467 283.454 52.52 282.801 52.8C282.161 53.0667 281.474 53.2 280.741 53.2C280.007 53.2 279.314 53.0667 278.661 52.8C278.021 52.52 277.461 52.1467 276.981 51.68C276.501 51.2 276.121 50.64 275.841 50C275.574 49.3467 275.441 48.6467 275.441 47.9ZM280.741 51.44C281.661 51.44 282.441 51.1 283.081 50.42C283.734 49.7267 284.061 48.8867 284.061 47.9C284.061 46.9133 283.734 46.08 283.081 45.4C282.441 44.72 281.661 44.38 280.741 44.38C279.821 44.38 279.034 44.72 278.381 45.4C277.727 46.08 277.401 46.9133 277.401 47.9C277.401 48.8867 277.721 49.7267 278.361 50.42C279.014 51.1 279.807 51.44 280.741 51.44ZM287.912 53V42.82H289.912V43.84C290.312 43.44 290.766 43.14 291.272 42.94C291.792 42.7267 292.359 42.62 292.972 42.62C294.132 42.62 295.086 42.9933 295.832 43.74C296.579 44.4733 296.952 45.4267 296.952 46.6V53H294.952V46.94C294.952 46.14 294.719 45.5133 294.252 45.06C293.799 44.5933 293.192 44.36 292.432 44.36C291.899 44.36 291.412 44.4733 290.972 44.7C290.546 44.9267 290.192 45.2533 289.912 45.68V53H287.912ZM302.48 53.18C301.373 53.18 300.473 52.8933 299.78 52.32C299.087 51.7467 298.74 51 298.74 50.08C298.74 49.12 299.107 48.3667 299.84 47.82C300.573 47.26 301.58 46.98 302.86 46.98C303.353 46.98 303.833 47.0333 304.3 47.14C304.767 47.2333 305.213 47.3667 305.64 47.54V46.46C305.64 45.74 305.427 45.2 305 44.84C304.573 44.48 303.96 44.3 303.16 44.3C302.693 44.3 302.207 44.3733 301.7 44.52C301.193 44.6533 300.627 44.8667 300 45.16L299.26 43.66C300.02 43.3 300.74 43.04 301.42 42.88C302.1 42.7067 302.773 42.62 303.44 42.62C304.76 42.62 305.78 42.94 306.5 43.58C307.233 44.2067 307.6 45.1 307.6 46.26V53H305.64V52.12C305.187 52.48 304.7 52.7467 304.18 52.92C303.66 53.0933 303.093 53.18 302.48 53.18ZM300.66 50.04C300.66 50.5333 300.867 50.9333 301.28 51.24C301.707 51.5467 302.26 51.7 302.94 51.7C303.473 51.7 303.967 51.62 304.42 51.46C304.873 51.3 305.28 51.06 305.64 50.74V48.98C305.253 48.7667 304.847 48.6133 304.42 48.52C303.993 48.4133 303.527 48.36 303.02 48.36C302.3 48.36 301.727 48.5133 301.3 48.82C300.873 49.1267 300.66 49.5333 300.66 50.04ZM309.905 53V42.82H311.905V43.84C312.305 43.44 312.758 43.14 313.265 42.94C313.785 42.7267 314.351 42.62 314.965 42.62C316.125 42.62 317.078 42.9933 317.825 43.74C318.571 44.4733 318.945 45.4267 318.945 46.6V53H316.945V46.94C316.945 46.14 316.711 45.5133 316.245 45.06C315.791 44.5933 315.185 44.36 314.425 44.36C313.891 44.36 313.405 44.4733 312.965 44.7C312.538 44.9267 312.185 45.2533 311.905 45.68V53H309.905ZM329.052 53V52.04C328.626 52.4 328.146 52.68 327.612 52.88C327.079 53.0667 326.519 53.16 325.932 53.16C325.212 53.16 324.539 53.0267 323.912 52.76C323.286 52.48 322.739 52.1067 322.272 51.64C321.819 51.1733 321.459 50.62 321.192 49.98C320.926 49.3267 320.792 48.6333 320.792 47.9C320.792 47.1667 320.926 46.48 321.192 45.84C321.459 45.2 321.819 44.6467 322.272 44.18C322.739 43.7133 323.292 43.3467 323.932 43.08C324.572 42.8 325.252 42.66 325.972 42.66C326.532 42.66 327.072 42.7467 327.592 42.92C328.112 43.0933 328.592 43.34 329.032 43.66V39L331.032 38.56V53H329.052ZM322.752 47.88C322.752 48.88 323.086 49.72 323.752 50.4C324.419 51.08 325.239 51.42 326.212 51.42C326.786 51.42 327.312 51.3133 327.792 51.1C328.286 50.8867 328.699 50.5867 329.032 50.2V45.58C328.699 45.2067 328.286 44.9133 327.792 44.7C327.299 44.4867 326.772 44.38 326.212 44.38C325.239 44.38 324.419 44.7133 323.752 45.38C323.086 46.0467 322.752 46.88 322.752 47.88ZM332.941 47.9C332.941 47.1667 333.074 46.48 333.341 45.84C333.621 45.1867 334.001 44.6267 334.481 44.16C334.961 43.68 335.521 43.3067 336.161 43.04C336.814 42.76 337.507 42.62 338.241 42.62C338.974 42.62 339.661 42.76 340.301 43.04C340.954 43.3067 341.514 43.68 341.981 44.16C342.461 44.6267 342.834 45.1867 343.101 45.84C343.381 46.48 343.521 47.1667 343.521 47.9C343.521 48.6467 343.381 49.3467 343.101 50C342.834 50.64 342.461 51.2 341.981 51.68C341.514 52.1467 340.954 52.52 340.301 52.8C339.661 53.0667 338.974 53.2 338.241 53.2C337.507 53.2 336.814 53.0667 336.161 52.8C335.521 52.52 334.961 52.1467 334.481 51.68C334.001 51.2 333.621 50.64 333.341 50C333.074 49.3467 332.941 48.6467 332.941 47.9ZM338.241 51.44C339.161 51.44 339.941 51.1 340.581 50.42C341.234 49.7267 341.561 48.8867 341.561 47.9C341.561 46.9133 341.234 46.08 340.581 45.4C339.941 44.72 339.161 44.38 338.241 44.38C337.321 44.38 336.534 44.72 335.881 45.4C335.227 46.08 334.901 46.9133 334.901 47.9C334.901 48.8867 335.221 49.7267 335.861 50.42C336.514 51.1 337.307 51.44 338.241 51.44Z" fill="#121212"/>
<path d="M84.7945 79.18C83.6879 79.18 82.7879 78.8933 82.0945 78.32C81.4012 77.7467 81.0545 77 81.0545 76.08C81.0545 75.12 81.4212 74.3667 82.1545 73.82C82.8879 73.26 83.8945 72.98 85.1745 72.98C85.6679 72.98 86.1479 73.0333 86.6145 73.14C87.0812 73.2333 87.5279 73.3667 87.9545 73.54V72.46C87.9545 71.74 87.7412 71.2 87.3145 70.84C86.8879 70.48 86.2745 70.3 85.4745 70.3C85.0079 70.3 84.5212 70.3733 84.0145 70.52C83.5079 70.6533 82.9412 70.8667 82.3145 71.16L81.5745 69.66C82.3345 69.3 83.0545 69.04 83.7345 68.88C84.4145 68.7067 85.0879 68.62 85.7545 68.62C87.0745 68.62 88.0945 68.94 88.8145 69.58C89.5479 70.2067 89.9145 71.1 89.9145 72.26V79H87.9545V78.12C87.5012 78.48 87.0145 78.7467 86.4945 78.92C85.9745 79.0933 85.4079 79.18 84.7945 79.18ZM82.9745 76.04C82.9745 76.5333 83.1812 76.9333 83.5945 77.24C84.0212 77.5467 84.5745 77.7 85.2545 77.7C85.7879 77.7 86.2812 77.62 86.7345 77.46C87.1879 77.3 87.5945 77.06 87.9545 76.74V74.98C87.5679 74.7667 87.1612 74.6133 86.7345 74.52C86.3079 74.4133 85.8412 74.36 85.3345 74.36C84.6145 74.36 84.0412 74.5133 83.6145 74.82C83.1879 75.1267 82.9745 75.5333 82.9745 76.04ZM92.2191 83.14V68.82H94.1991V69.8C94.6124 69.4267 95.0857 69.1467 95.6191 68.96C96.1524 68.76 96.7191 68.66 97.3191 68.66C98.0391 68.66 98.7124 68.8 99.3391 69.08C99.9657 69.3467 100.506 69.7133 100.959 70.18C101.426 70.6467 101.792 71.2 102.059 71.84C102.326 72.48 102.459 73.1667 102.459 73.9C102.459 74.6333 102.326 75.3267 102.059 75.98C101.792 76.62 101.426 77.1733 100.959 77.64C100.506 78.1067 99.9591 78.48 99.3191 78.76C98.6791 79.0267 97.9991 79.16 97.2791 79.16C96.7191 79.16 96.1724 79.0733 95.6391 78.9C95.1191 78.7267 94.6457 78.48 94.2191 78.16V83.14H92.2191ZM97.0591 70.4C96.4857 70.4 95.9524 70.5067 95.4591 70.72C94.9657 70.9333 94.5524 71.2333 94.2191 71.62V76.22C94.5391 76.5933 94.9457 76.8867 95.4391 77.1C95.9457 77.3133 96.4857 77.42 97.0591 77.42C98.0324 77.42 98.8457 77.0867 99.4991 76.42C100.166 75.7533 100.499 74.92 100.499 73.92C100.499 72.92 100.166 72.0867 99.4991 71.42C98.8324 70.74 98.0191 70.4 97.0591 70.4ZM104.368 83.14V68.82H106.348V69.8C106.761 69.4267 107.234 69.1467 107.768 68.96C108.301 68.76 108.868 68.66 109.468 68.66C110.188 68.66 110.861 68.8 111.488 69.08C112.114 69.3467 112.654 69.7133 113.108 70.18C113.574 70.6467 113.941 71.2 114.207 71.84C114.474 72.48 114.608 73.1667 114.608 73.9C114.608 74.6333 114.474 75.3267 114.207 75.98C113.941 76.62 113.574 77.1733 113.108 77.64C112.654 78.1067 112.108 78.48 111.468 78.76C110.828 79.0267 110.148 79.16 109.428 79.16C108.868 79.16 108.321 79.0733 107.788 78.9C107.268 78.7267 106.794 78.48 106.368 78.16V83.14H104.368ZM109.208 70.4C108.634 70.4 108.101 70.5067 107.608 70.72C107.114 70.9333 106.701 71.2333 106.368 71.62V76.22C106.688 76.5933 107.094 76.8867 107.588 77.1C108.094 77.3133 108.634 77.42 109.208 77.42C110.181 77.42 110.994 77.0867 111.648 76.42C112.314 75.7533 112.648 74.92 112.648 73.92C112.648 72.92 112.314 72.0867 111.648 71.42C110.981 70.74 110.168 70.4 109.208 70.4ZM128.296 78L123.456 68.7V79H120.776V65H124.496L128.336 72.52L132.176 65H135.896V79H133.156V68.72L128.296 78ZM152.692 72C152.692 73 152.499 73.9467 152.112 74.84C151.726 75.72 151.199 76.4867 150.532 77.14C149.879 77.78 149.099 78.2867 148.192 78.66C147.286 79.0333 146.312 79.22 145.272 79.22C144.246 79.22 143.279 79.0333 142.372 78.66C141.466 78.2867 140.679 77.78 140.012 77.14C139.359 76.4867 138.839 75.72 138.452 74.84C138.066 73.9467 137.872 73 137.872 72C137.872 71 138.066 70.06 138.452 69.18C138.839 68.2867 139.359 67.52 140.012 66.88C140.679 66.2267 141.466 65.7133 142.372 65.34C143.279 64.9667 144.246 64.78 145.272 64.78C146.312 64.78 147.286 64.9667 148.192 65.34C149.099 65.7133 149.879 66.2267 150.532 66.88C151.199 67.52 151.726 68.2867 152.112 69.18C152.499 70.06 152.692 71 152.692 72ZM149.712 72C149.712 71.3467 149.599 70.7467 149.372 70.2C149.146 69.64 148.832 69.16 148.432 68.76C148.046 68.3467 147.579 68.0267 147.032 67.8C146.486 67.56 145.899 67.44 145.272 67.44C144.646 67.44 144.059 67.56 143.512 67.8C142.979 68.0267 142.512 68.3467 142.112 68.76C141.726 69.16 141.419 69.64 141.192 70.2C140.966 70.7467 140.852 71.3467 140.852 72C140.852 72.64 140.966 73.24 141.192 73.8C141.419 74.36 141.726 74.8467 142.112 75.26C142.512 75.66 142.979 75.98 143.512 76.22C144.059 76.4467 144.646 76.56 145.272 76.56C145.899 76.56 146.486 76.4467 147.032 76.22C147.579 75.98 148.046 75.66 148.432 75.26C148.832 74.8467 149.146 74.36 149.372 73.8C149.599 73.24 149.712 72.64 149.712 72ZM154.682 79V65H160.062C161.102 65 162.075 65.18 162.982 65.54C163.889 65.9 164.669 66.3933 165.322 67.02C165.989 67.6467 166.509 68.3933 166.882 69.26C167.269 70.1267 167.462 71.0533 167.462 72.04C167.462 73.0133 167.269 73.9267 166.882 74.78C166.509 75.6333 165.989 76.3733 165.322 77C164.669 77.6133 163.889 78.1 162.982 78.46C162.075 78.82 161.102 79 160.062 79H154.682ZM160.042 67.58H157.582V76.42H160.042C160.655 76.42 161.229 76.3067 161.762 76.08C162.309 75.8533 162.782 75.5467 163.182 75.16C163.582 74.76 163.895 74.2933 164.122 73.76C164.349 73.2267 164.462 72.6533 164.462 72.04C164.462 71.4133 164.349 70.8267 164.122 70.28C163.895 69.7333 163.582 69.26 163.182 68.86C162.782 68.46 162.309 68.1467 161.762 67.92C161.229 67.6933 160.655 67.58 160.042 67.58ZM183.747 72C183.747 73 183.554 73.9467 183.167 74.84C182.78 75.72 182.254 76.4867 181.587 77.14C180.934 77.78 180.154 78.2867 179.247 78.66C178.34 79.0333 177.367 79.22 176.327 79.22C175.3 79.22 174.334 79.0333 173.427 78.66C172.52 78.2867 171.734 77.78 171.067 77.14C170.414 76.4867 169.894 75.72 169.507 74.84C169.12 73.9467 168.927 73 168.927 72C168.927 71 169.12 70.06 169.507 69.18C169.894 68.2867 170.414 67.52 171.067 66.88C171.734 66.2267 172.52 65.7133 173.427 65.34C174.334 64.9667 175.3 64.78 176.327 64.78C177.367 64.78 178.34 64.9667 179.247 65.34C180.154 65.7133 180.934 66.2267 181.587 66.88C182.254 67.52 182.78 68.2867 183.167 69.18C183.554 70.06 183.747 71 183.747 72ZM180.767 72C180.767 71.3467 180.654 70.7467 180.427 70.2C180.2 69.64 179.887 69.16 179.487 68.76C179.1 68.3467 178.634 68.0267 178.087 67.8C177.54 67.56 176.954 67.44 176.327 67.44C175.7 67.44 175.114 67.56 174.567 67.8C174.034 68.0267 173.567 68.3467 173.167 68.76C172.78 69.16 172.474 69.64 172.247 70.2C172.02 70.7467 171.907 71.3467 171.907 72C171.907 72.64 172.02 73.24 172.247 73.8C172.474 74.36 172.78 74.8467 173.167 75.26C173.567 75.66 174.034 75.98 174.567 76.22C175.114 76.4467 175.7 76.56 176.327 76.56C176.954 76.56 177.54 76.4467 178.087 76.22C178.634 75.98 179.1 75.66 179.487 75.26C179.887 74.8467 180.2 74.36 180.427 73.8C180.654 73.24 180.767 72.64 180.767 72ZM189.376 73.9C189.376 73.1667 189.51 72.48 189.776 71.84C190.056 71.1867 190.436 70.6267 190.916 70.16C191.396 69.68 191.956 69.3067 192.596 69.04C193.25 68.76 193.943 68.62 194.676 68.62C195.41 68.62 196.096 68.76 196.736 69.04C197.39 69.3067 197.95 69.68 198.416 70.16C198.896 70.6267 199.27 71.1867 199.536 71.84C199.816 72.48 199.956 73.1667 199.956 73.9C199.956 74.6467 199.816 75.3467 199.536 76C199.27 76.64 198.896 77.2 198.416 77.68C197.95 78.1467 197.39 78.52 196.736 78.8C196.096 79.0667 195.41 79.2 194.676 79.2C193.943 79.2 193.25 79.0667 192.596 78.8C191.956 78.52 191.396 78.1467 190.916 77.68C190.436 77.2 190.056 76.64 189.776 76C189.51 75.3467 189.376 74.6467 189.376 73.9ZM194.676 77.44C195.596 77.44 196.376 77.1 197.016 76.42C197.67 75.7267 197.996 74.8867 197.996 73.9C197.996 72.9133 197.67 72.08 197.016 71.4C196.376 70.72 195.596 70.38 194.676 70.38C193.756 70.38 192.97 70.72 192.316 71.4C191.663 72.08 191.336 72.9133 191.336 73.9C191.336 74.8867 191.656 75.7267 192.296 76.42C192.95 77.1 193.743 77.44 194.676 77.44ZM209.248 79.18C208.141 79.18 207.241 78.8933 206.548 78.32C205.854 77.7467 205.508 77 205.508 76.08C205.508 75.12 205.874 74.3667 206.608 73.82C207.341 73.26 208.348 72.98 209.628 72.98C210.121 72.98 210.601 73.0333 211.068 73.14C211.534 73.2333 211.981 73.3667 212.408 73.54V72.46C212.408 71.74 212.194 71.2 211.768 70.84C211.341 70.48 210.728 70.3 209.928 70.3C209.461 70.3 208.974 70.3733 208.468 70.52C207.961 70.6533 207.394 70.8667 206.768 71.16L206.028 69.66C206.788 69.3 207.508 69.04 208.188 68.88C208.868 68.7067 209.541 68.62 210.208 68.62C211.528 68.62 212.548 68.94 213.268 69.58C214.001 70.2067 214.368 71.1 214.368 72.26V79H212.408V78.12C211.954 78.48 211.468 78.7467 210.948 78.92C210.428 79.0933 209.861 79.18 209.248 79.18ZM207.428 76.04C207.428 76.5333 207.634 76.9333 208.048 77.24C208.474 77.5467 209.028 77.7 209.708 77.7C210.241 77.7 210.734 77.62 211.188 77.46C211.641 77.3 212.048 77.06 212.408 76.74V74.98C212.021 74.7667 211.614 74.6133 211.188 74.52C210.761 74.4133 210.294 74.36 209.788 74.36C209.068 74.36 208.494 74.5133 208.068 74.82C207.641 75.1267 207.428 75.5333 207.428 76.04ZM216.672 83.14V68.82H218.652V69.8C219.066 69.4267 219.539 69.1467 220.072 68.96C220.606 68.76 221.172 68.66 221.772 68.66C222.492 68.66 223.166 68.8 223.792 69.08C224.419 69.3467 224.959 69.7133 225.412 70.18C225.879 70.6467 226.246 71.2 226.512 71.84C226.779 72.48 226.912 73.1667 226.912 73.9C226.912 74.6333 226.779 75.3267 226.512 75.98C226.246 76.62 225.879 77.1733 225.412 77.64C224.959 78.1067 224.412 78.48 223.772 78.76C223.132 79.0267 222.452 79.16 221.732 79.16C221.172 79.16 220.626 79.0733 220.092 78.9C219.572 78.7267 219.099 78.48 218.672 78.16V83.14H216.672ZM221.512 70.4C220.939 70.4 220.406 70.5067 219.912 70.72C219.419 70.9333 219.006 71.2333 218.672 71.62V76.22C218.992 76.5933 219.399 76.8867 219.892 77.1C220.399 77.3133 220.939 77.42 221.512 77.42C222.486 77.42 223.299 77.0867 223.952 76.42C224.619 75.7533 224.952 74.92 224.952 73.92C224.952 72.92 224.619 72.0867 223.952 71.42C223.286 70.74 222.472 70.4 221.512 70.4ZM228.821 83.14V68.82H230.801V69.8C231.214 69.4267 231.687 69.1467 232.221 68.96C232.754 68.76 233.321 68.66 233.921 68.66C234.641 68.66 235.314 68.8 235.941 69.08C236.567 69.3467 237.107 69.7133 237.561 70.18C238.027 70.6467 238.394 71.2 238.661 71.84C238.927 72.48 239.061 73.1667 239.061 73.9C239.061 74.6333 238.927 75.3267 238.661 75.98C238.394 76.62 238.027 77.1733 237.561 77.64C237.107 78.1067 236.561 78.48 235.921 78.76C235.281 79.0267 234.601 79.16 233.881 79.16C233.321 79.16 232.774 79.0733 232.241 78.9C231.721 78.7267 231.247 78.48 230.821 78.16V83.14H228.821ZM233.661 70.4C233.087 70.4 232.554 70.5067 232.061 70.72C231.567 70.9333 231.154 71.2333 230.821 71.62V76.22C231.141 76.5933 231.547 76.8867 232.041 77.1C232.547 77.3133 233.087 77.42 233.661 77.42C234.634 77.42 235.447 77.0867 236.101 76.42C236.767 75.7533 237.101 74.92 237.101 73.92C237.101 72.92 236.767 72.0867 236.101 71.42C235.434 70.74 234.621 70.4 233.661 70.4ZM245.229 65H251.809C253.209 65 254.349 65.36 255.229 66.08C256.109 66.7867 256.549 67.7067 256.549 68.84C256.549 69.4533 256.395 70.0133 256.089 70.52C255.782 71.0267 255.362 71.4467 254.829 71.78C255.495 72.1 256.029 72.54 256.429 73.1C256.829 73.6467 257.029 74.26 257.029 74.94C257.029 76.1533 256.575 77.1333 255.669 77.88C254.775 78.6267 253.595 79 252.129 79H245.229V65ZM251.629 67.4H248.129V70.72H251.629C252.242 70.72 252.735 70.5733 253.109 70.28C253.482 69.9733 253.669 69.5667 253.669 69.06C253.669 68.5533 253.482 68.1533 253.109 67.86C252.735 67.5533 252.242 67.4 251.629 67.4ZM251.909 76.6C252.575 76.6 253.109 76.44 253.509 76.12C253.909 75.7867 254.109 75.34 254.109 74.78C254.109 74.2467 253.909 73.8133 253.509 73.48C253.109 73.1467 252.575 72.98 251.909 72.98H248.129V76.6H251.909ZM262.177 79.18C261.057 79.18 260.144 78.8867 259.437 78.3C258.73 77.7 258.377 76.9267 258.377 75.98C258.377 74.9933 258.757 74.22 259.517 73.66C260.277 73.1 261.324 72.82 262.657 72.82C263.084 72.82 263.51 72.8533 263.937 72.92C264.364 72.9867 264.784 73.0867 265.197 73.22V72.48C265.197 71.88 265.01 71.4267 264.637 71.12C264.264 70.8133 263.717 70.66 262.997 70.66C262.557 70.66 262.077 70.7333 261.557 70.88C261.05 71.0133 260.47 71.2267 259.817 71.52L258.817 69.5C259.63 69.1267 260.417 68.8467 261.177 68.66C261.95 68.4733 262.71 68.38 263.457 68.38C264.857 68.38 265.944 68.72 266.717 69.4C267.504 70.0667 267.897 71.0133 267.897 72.24V79H265.197V78.28C264.757 78.5867 264.29 78.8133 263.797 78.96C263.317 79.1067 262.777 79.18 262.177 79.18ZM260.997 75.92C260.997 76.32 261.17 76.64 261.517 76.88C261.864 77.1067 262.324 77.22 262.897 77.22C263.35 77.22 263.764 77.1667 264.137 77.06C264.524 76.94 264.877 76.7733 265.197 76.56V75C264.864 74.8667 264.51 74.7733 264.137 74.72C263.777 74.6533 263.397 74.62 262.997 74.62C262.37 74.62 261.877 74.74 261.517 74.98C261.17 75.2067 260.997 75.52 260.997 75.92ZM269.971 79V68.58H272.711V69.4C273.111 69.0667 273.551 68.8133 274.031 68.64C274.524 68.4667 275.057 68.38 275.631 68.38C276.831 68.38 277.817 68.7667 278.591 69.54C279.364 70.3133 279.751 71.3067 279.751 72.52V79H277.011V72.92C277.011 72.2667 276.811 71.74 276.411 71.34C276.024 70.94 275.504 70.74 274.851 70.74C274.397 70.74 273.984 70.8333 273.611 71.02C273.251 71.1933 272.951 71.4467 272.711 71.78V79H269.971ZM286.926 76.8C287.393 76.8 287.826 76.7067 288.226 76.52C288.639 76.3333 289.033 76.04 289.406 75.64L291.046 77.34C290.513 77.9267 289.873 78.3867 289.126 78.72C288.379 79.04 287.606 79.2 286.806 79.2C286.046 79.2 285.326 79.06 284.646 78.78C283.979 78.5 283.399 78.12 282.906 77.64C282.426 77.16 282.046 76.5933 281.766 75.94C281.486 75.2733 281.346 74.56 281.346 73.8C281.346 73.04 281.486 72.3333 281.766 71.68C282.046 71.0133 282.426 70.44 282.906 69.96C283.399 69.4667 283.979 69.08 284.646 68.8C285.326 68.52 286.046 68.38 286.806 68.38C287.633 68.38 288.426 68.5467 289.186 68.88C289.946 69.2 290.593 69.6533 291.126 70.24L289.446 72.02C289.073 71.6067 288.673 71.2933 288.246 71.08C287.819 70.8667 287.359 70.76 286.866 70.76C286.079 70.76 285.413 71.0533 284.866 71.64C284.333 72.2267 284.066 72.9467 284.066 73.8C284.066 74.6533 284.339 75.3667 284.886 75.94C285.446 76.5133 286.126 76.8 286.926 76.8ZM295.771 79.18C294.651 79.18 293.737 78.8867 293.031 78.3C292.324 77.7 291.971 76.9267 291.971 75.98C291.971 74.9933 292.351 74.22 293.111 73.66C293.871 73.1 294.917 72.82 296.251 72.82C296.677 72.82 297.104 72.8533 297.531 72.92C297.957 72.9867 298.377 73.0867 298.791 73.22V72.48C298.791 71.88 298.604 71.4267 298.231 71.12C297.857 70.8133 297.311 70.66 296.591 70.66C296.151 70.66 295.671 70.7333 295.151 70.88C294.644 71.0133 294.064 71.2267 293.411 71.52L292.411 69.5C293.224 69.1267 294.011 68.8467 294.771 68.66C295.544 68.4733 296.304 68.38 297.051 68.38C298.451 68.38 299.537 68.72 300.311 69.4C301.097 70.0667 301.491 71.0133 301.491 72.24V79H298.791V78.28C298.351 78.5867 297.884 78.8133 297.391 78.96C296.911 79.1067 296.371 79.18 295.771 79.18ZM294.591 75.92C294.591 76.32 294.764 76.64 295.111 76.88C295.457 77.1067 295.917 77.22 296.491 77.22C296.944 77.22 297.357 77.1667 297.731 77.06C298.117 76.94 298.471 76.7733 298.791 76.56V75C298.457 74.8667 298.104 74.7733 297.731 74.72C297.371 74.6533 296.991 74.62 296.591 74.62C295.964 74.62 295.471 74.74 295.111 74.98C294.764 75.2067 294.591 75.52 294.591 75.92ZM303.564 79V68.58H306.304V69.72C306.638 69.2667 307.038 68.9267 307.504 68.7C307.984 68.46 308.511 68.34 309.084 68.34C309.351 68.3533 309.571 68.38 309.744 68.42C309.931 68.4467 310.091 68.5 310.224 68.58V70.98C310.024 70.8867 309.804 70.82 309.564 70.78C309.324 70.7267 309.078 70.7 308.824 70.7C308.291 70.7 307.798 70.8333 307.344 71.1C306.904 71.3667 306.558 71.7533 306.304 72.26V79H303.564ZM313.069 67.34C312.642 67.34 312.276 67.1867 311.969 66.88C311.662 66.5733 311.509 66.2067 311.509 65.78C311.509 65.3533 311.662 64.9867 311.969 64.68C312.276 64.3733 312.642 64.22 313.069 64.22C313.496 64.22 313.862 64.3733 314.169 64.68C314.476 64.9867 314.629 65.3533 314.629 65.78C314.629 66.2067 314.476 66.5733 314.169 66.88C313.862 67.1867 313.496 67.34 313.069 67.34ZM314.449 68.58V79H311.709V68.58H314.449ZM319.892 79.18C318.772 79.18 317.858 78.8867 317.152 78.3C316.445 77.7 316.092 76.9267 316.092 75.98C316.092 74.9933 316.472 74.22 317.232 73.66C317.992 73.1 319.038 72.82 320.372 72.82C320.798 72.82 321.225 72.8533 321.652 72.92C322.078 72.9867 322.498 73.0867 322.912 73.22V72.48C322.912 71.88 322.725 71.4267 322.352 71.12C321.978 70.8133 321.432 70.66 320.712 70.66C320.272 70.66 319.792 70.7333 319.272 70.88C318.765 71.0133 318.185 71.2267 317.532 71.52L316.532 69.5C317.345 69.1267 318.132 68.8467 318.892 68.66C319.665 68.4733 320.425 68.38 321.172 68.38C322.572 68.38 323.658 68.72 324.432 69.4C325.218 70.0667 325.612 71.0133 325.612 72.24V79H322.912V78.28C322.472 78.5867 322.005 78.8133 321.512 78.96C321.032 79.1067 320.492 79.18 319.892 79.18ZM318.712 75.92C318.712 76.32 318.885 76.64 319.232 76.88C319.578 77.1067 320.038 77.22 320.612 77.22C321.065 77.22 321.478 77.1667 321.852 77.06C322.238 76.94 322.592 76.7733 322.912 76.56V75C322.578 74.8667 322.225 74.7733 321.852 74.72C321.492 74.6533 321.112 74.62 320.712 74.62C320.085 74.62 319.592 74.74 319.232 74.98C318.885 75.2067 318.712 75.52 318.712 75.92Z" fill="#29B095"/>
</svg>
